<svg width="429" height="88.859" viewBox="0 0 591.363 122.489" class="looka-1j8o68f"><path d="m277.352 23.472 17.351 30.056c.264.484-.066 1.101-.638 1.101h-12.463c-.705 0-1.343-.374-1.718-.99l-14.62-25.345a1.95 1.95 0 0 1 0-1.96l3.831-6.627h.022l4.734-8.191h-.022l3.501-6.055c2.885-4.977 10.019-5.285 13.168-.485.066.11.132.198.198.308l18.826 32.589c.022.022.044.044.044.066 2.246 3.83 7.773 3.765 9.997-.066l1.695-2.929c-2.554-.132-4.866-1.52-6.143-3.765L297.764 1.1C297.5.616 297.83 0 298.402 0h12.441c.705 0 1.343.374 1.718.99l14.62 25.323a1.95 1.95 0 0 1 0 1.96l-1.695 2.928-8.61 14.929-1.85 3.192c-2.884 4.977-10.062 5.197-13.1.309-.045-.088-.133-.199-.177-.287l-18.826-32.588c-.022-.022-.044-.044-.044-.066-2.246-3.809-7.773-3.743-9.975.066l-1.717 2.95a7.53 7.53 0 0 1 6.165 3.766" xmlns="http://www.w3.org/2000/svg" fill="#07689f"/></svg>